<svg xmlns="http://www.w3.org/2000/svg" xml:space="preserve" width="100" height="100" viewBox="0 0 512 512"><path fill="#3498db" d="M227.404 63.134h57.198v28.599h-57.198zm0 262.035h57.198v28.599h-57.198zm0-65.507h57.198v28.599h-57.198zm0-65.507h57.198v28.599h-57.198zm0-65.514h57.198v28.599h-57.198z"/><path fill="#3498db" d="M378.367 0H160.298l-7.15 7.08-24.738 24.738-48.903 48.904-24.739 24.738-7.08 7.15v313.523c0 47.332 38.542 85.868 85.868 85.868h67.469c-6.054-8.323-8.658-18.692-7.101-28.962l.433-2.856h-60.801c-29.884 0-54.05-24.236-54.05-54.05v-303.44h56.409c19.02 0 34.464-15.445 34.464-34.464v-56.41h207.987c29.891 0 54.126 24.166 54.126 54.057v340.258c0 29.814-24.235 54.05-54.126 54.05H317.65l.432 2.87c1.557 10.256-1.047 20.625-7.1 28.948h67.386c47.402 0 85.944-38.535 85.944-85.868V85.875C464.311 38.542 425.77 0 378.367 0z"/><path fill="#3498db" d="M285.217 384.882H226.79l-15.194 100.83c-.936 6.18.873 12.449 4.944 17.177 4.078 4.734 10.005 7.456 16.248 7.456h46.431c6.242 0 12.17-2.723 16.248-7.456 4.07-4.728 5.879-10.997 4.944-17.177l-15.194-100.83zm-48.02 90.894 7.687-50.957h22.225l7.68 50.957h-37.592z"/></svg>