<svg xmlns="http://www.w3.org/2000/svg" width="100" height="100" viewBox="0 0 172 172"><g fill="none" stroke-miterlimit="10" stroke-width="none" font-family="none" font-size="none" font-weight="none" style="mix-blend-mode:normal" text-anchor="none"><path d="M0 172V0h172v172z"/><path fill="#3498db" d="M141.65347 50.4132 104.3868 13.14653c-1.07787-1.07787-2.53413-1.67987-4.05347-1.67987h-60.2c-6.33533 0-11.46667 5.13133-11.46667 11.46667v126.13333c0 6.33533 5.13133 11.46667 11.46667 11.46667h91.73333c6.33533 0 11.46667-5.13133 11.46667-11.46667v-94.6c0-1.51933-.602-2.9756-1.67987-4.05347zM103.2 57.33333c-3.1648 0-5.73333-2.56853-5.73333-5.73333V22.38293l34.9504 34.9504z"/><path fill="#fff" d="m69.435 129.22-.94 2.76c-3.04667-.86-5.21333-2.22667-6.5-4.1-1.29333-1.87333-1.94-4.14-1.94-6.8v-4.8c0-1.75333-.39667-3.11667-1.19-4.09-.8-.98-2.02667-1.47-3.68-1.47v-3.44c1.65333 0 2.88-.48 3.68-1.44.79333-.96 1.19-2.32333 1.19-4.09v-4.83c0-2.67333.64667-4.94333 1.94-6.81 1.28667-1.86667 3.45333-3.23 6.5-4.09l.94 2.74c-1.72.54667-2.94333 1.52667-3.67 2.94-.72667 1.42-1.09 3.16-1.09 5.22v4.83c0 1.64-.33 3.08333-.99 4.33-.65333 1.25333-1.64333 2.23-2.97 2.93 1.32667.72 2.31667 1.71 2.97 2.97.66 1.25333.99 2.68667.99 4.3v4.8c0 2.06667.36333 3.79667 1.09 5.19.72667 1.4 1.95 2.38333 3.67 2.95zm13.87-5.77zm6.8-25.36v4.74h-4.62v-4.74zm.05 20.18v3.49c0 1.53333-.38333 3.13667-1.15 4.81-.76667 1.67333-1.8 3.06333-3.1 4.17l-2.6-1.74c.73333-1.12 1.29-2.26667 1.67-3.44.37333-1.17333.56-2.41667.56-3.73v-3.56zm15.35 13.71-.94-2.76c1.68667-.56667 2.89667-1.55 3.63-2.95.73333-1.39333 1.1-3.12333 1.1-5.19v-4.8c0-1.67333.35333-3.13333 1.06-4.38.7-1.25333 1.78667-2.21667 3.26-2.89-1.47333-.64-2.56-1.58333-3.26-2.83-.70667-1.25333-1.06-2.73-1.06-4.43v-4.83c0-2.06-.36667-3.8-1.1-5.22-.73333-1.41333-1.94333-2.39333-3.63-2.94l.94-2.74c3.02667.86 5.18667 2.22333 6.48 4.09 1.28667 1.86667 1.93 4.13667 1.93 6.81v4.83c0 1.76667.4 3.13 1.2 4.09.79333.96 2.02667 1.44 3.7 1.44v3.44c-1.67333 0-2.90667.49-3.7 1.47-.8.97333-1.2 2.33667-1.2 4.09v4.8c0 2.66-.64333 4.92667-1.93 6.8-1.29333 1.87333-3.45333 3.24-6.48 4.1z"/></g></svg>