<svg xmlns="http://www.w3.org/2000/svg" viewBox="0 0 172 172"><g fill="none" stroke-miterlimit="10" font-family="none" font-size="none" font-weight="none" style="mix-blend-mode:normal" text-anchor="none"><path d="M0 172V0h172v172z"/><path fill="#000" d="M69.83301 10.75C61.01465 10.75 53.75 18.01465 53.75 26.83301V32.25H21.5V43h10.75v91.375c0 8.86035 7.26465 16.125 16.125 16.125h64.5c8.86035 0 16.125-7.26465 16.125-16.125V43h10.75V32.25H107.5v-5.41699c0-8.81836-7.26465-16.08301-16.08301-16.08301zm0 10.75h21.58398c3.02344 0 5.33301 2.30957 5.33301 5.33301V32.25H64.5v-5.41699c0-3.02344 2.30957-5.33301 5.33301-5.33301zM43 43h75.25v91.375c0 3.02344-2.35156 5.375-5.375 5.375h-64.5c-3.02344 0-5.375-2.35156-5.375-5.375zm10.75 10.75V129H64.5V53.75zm21.5 0V129H86V53.75zm21.5 0V129h10.75V53.75z"/></g></svg>