<svg xmlns="http://www.w3.org/2000/svg" viewBox="0 0 172 172"><g fill="none" stroke-miterlimit="10" font-family="none" font-size="none" font-weight="none" style="mix-blend-mode:normal" text-anchor="none"><path d="M0 172V0h172v172z"/><path fill="#222" d="M86 21.5c-19.69433 0-36.82715 13.68946-41.57226 32.50196-11.58984 1.72168-20.78614 10.95996-22.5918 22.96972C8.98634 81.33887 0 93.60059 0 107.5c0 17.7627 14.4873 32.25 32.25 32.25h107.5c17.7627 0 32.25-14.4873 32.25-32.25 0-9.6582-4.2832-18.68652-11.67382-24.77539.62987-2.47754.92382-4.99707.92382-7.47461 0-19.56835-17.34277-35.52539-37.70898-31.74609C115.98243 30.02442 101.74707 21.5 86 21.5zm0 10.75c12.97558 0 24.64942 7.72656 29.73047 19.65234l1.88965 4.61915 4.70313-1.59571c2.43555-.79785 4.61915-1.17578 6.67676-1.17578 11.8418 0 21.5 9.65821 21.5 21.5 0 2.51953-.50391 5.08105-1.51172 7.64258l-1.51172 4.11523 3.69531 2.35156c6.29883 3.98926 10.07813 10.75 10.07813 18.14063 0 11.8418-9.6582 21.5-21.5 21.5h-107.5c-11.84179 0-21.5-9.6582-21.5-21.5 0-10.2041 7.26465-19.06445 17.2168-21.08007l4.40918-1.25977-.12598-4.53516c0-8.90234 7.22266-16.125 15.5791-16.16699l.79785-5.33301.29394 5.45899h4.66114l.67188-4.66114C56.4795 44.13379 70.12697 32.25 86.00001 32.25zm0 21.5V86H64.5l26.875 26.875L118.25 86h-21.5V53.75z"/></g></svg>