<?xml version="1.0" encoding="UTF-8"?>
<svg xmlns="http://www.w3.org/2000/svg" xmlns:xlink="http://www.w3.org/1999/xlink" viewBox="0 0 30 30" width="100px" height="100px">
<g id="surface1049794">
<path style=" stroke:none;fill-rule:nonzero;fill:rgb(20.392157%,59.607846%,85.882354%);fill-opacity:1;" d="M 24.707031 8.792969 L 18.207031 2.292969 C 18.019531 2.105469 17.765625 2 17.5 2 L 7 2 C 5.894531 2 5 2.894531 5 4 L 5 26 C 5 27.105469 5.894531 28 7 28 L 23 28 C 24.105469 28 25 27.105469 25 26 L 25 9.5 C 25 9.234375 24.894531 8.980469 24.707031 8.792969 Z M 18 21 L 10 21 C 9.449219 21 9 20.550781 9 20 C 9 19.449219 9.449219 19 10 19 L 18 19 C 18.550781 19 19 19.449219 19 20 C 19 20.550781 18.550781 21 18 21 Z M 20 17 L 10 17 C 9.449219 17 9 16.550781 9 16 C 9 15.449219 9.449219 15 10 15 L 20 15 C 20.550781 15 21 15.449219 21 16 C 21 16.550781 20.550781 17 20 17 Z M 18 10 C 17.449219 10 17 9.550781 17 9 L 17 3.902344 L 23.097656 10 Z M 18 10 "/>
</g>
</svg>
