<svg xmlns="http://www.w3.org/2000/svg" width="100" height="100" viewBox="0 0 30 30"><path fill="#3498db" d="M4 5c-1.105469 0-2 .894531-2 2v16c0 1.105469.894531 2 2 2h22c1.105469 0 2-.894531 2-2V7c0-1.105469-.894531-2-2-2Zm19 3c1.105469 0 2 .894531 2 2s-.894531 2-2 2-2-.894531-2-2 .894531-2 2-2ZM9 12.003906c.621094 0 1.238281.234375 1.710938.707032l5.445312 5.445312c.421875.421875 1.101562.417969 1.527344-.003906.421875-.421875.421875-1.109375 0-1.53125l-1.152344-1.148438.757812-.761718c.945313-.945313 2.476563-.945313 3.421876 0L25 19v3H5v-7l2.289062-2.289062c.472657-.472657 1.089844-.707032 1.710938-.707032Zm0 0"/></svg>