<svg xmlns="http://www.w3.org/2000/svg"><path d="M10.838 3.140998c0-.407.33-.736.737-.736h3.929c2.575.003 4.662 2.09 4.665 4.665v9.822c-.003 2.575-2.09 4.662-4.665 4.665h-3.929c-.567 0-.922-.613-.638-1.105.132-.227.375-.368.638-.368h3.929c1.762-.002 3.19-1.43 3.192-3.192v-9.822c-.002-1.762-1.43-3.19-3.192-3.192h-3.929c-.407 0-.737-.33-.737-.737Zm-7.641 9.361 3.929 3.928c.394.408 1.081.236 1.237-.309.075-.262 0-.544-.196-.733l-2.671-2.67h8.043c.567 0 .922-.614.638-1.105-.131-.228-.374-.369-.638-.369H5.496l2.671-2.671c.394-.408.199-1.089-.351-1.227-.247-.062-.508.008-.69.185l-3.929 3.928c-.288.288-.288.755 0 1.043Z"/></svg>