<svg xmlns="http://www.w3.org/2000/svg" width="100" height="100" viewBox="0 0 172 172"><g fill="none" stroke-miterlimit="10" font-family="none" font-size="none" font-weight="none" style="mix-blend-mode:normal" text-anchor="none"><path d="M0 172V0h172v172z"/><path fill="#1abc9c" d="m100.33333 21.5-86 14.33333v100.33333l86 14.33333v-14.33333H150.5c3.956 0 7.16667-3.21067 7.16667-7.16667v-86c0-3.956-3.21067-7.16667-7.16667-7.16667h-50.16667zM86 38.42285v95.1543l-57.33333-9.54622V47.96908zm14.33333 11.74382h14.33333V64.5h-14.33333zm28.66667 0h14.33333V64.5H129zm-91.9069 9.29427 13.50749 26.49707-14.76725 26.58105h12.44368l8.0485-17.16081c.5375-1.64117.89863-2.86432 1.0778-3.68132h.11198c.29383 1.70567.65082 2.91817.95182 3.52734l7.97852 17.30078h12.3877L64.542 85.76203l13.88541-26.30111H66.80957l-7.37663 15.74707c-.71667 2.0425-1.19807 3.61547-1.44173 4.63314h-.18197c-.41567-1.70567-.82741-3.20999-1.35775-4.50716l-6.62077-15.87305zm63.24023 19.37239h14.33333v14.33333h-14.33333zm28.66667 0h14.33333v14.33333H129zM100.33333 107.5h14.33333v14.33333h-14.33333zM129 107.5h14.33333v14.33333H129z"/></g></svg>