<svg xmlns="http://www.w3.org/2000/svg" width="100" height="100" viewBox="0 0 172 172"><g fill="none" stroke-miterlimit="10" font-family="none" font-size="none" font-weight="none" style="mix-blend-mode:normal" text-anchor="none"><path d="M0 172V0h172v172z"/><path fill="#e74c3c" d="m100.33333 21.5-86 14.33333v100.33333l86 14.33333v-14.33333H150.5c3.956 0 7.16667-3.21067 7.16667-7.16667v-86c0-3.956-3.21067-7.16667-7.16667-7.16667h-50.16667zM86 38.42285v95.1543l-57.33333-9.54622V47.96908zm14.33333 11.74382h42.99999v71.66665h-42.99999v-14.33333H129V93.16666h-28.66667v-21.5zm0 21.5C100.33333 79.58584 106.7475 86 114.66666 86c7.91917 0 14.33333-6.41417 14.33333-14.33333h-14.33333V57.33334c-7.91917 0-14.33333 6.41417-14.33333 14.33333zM35.74935 57.33333v57.33333h10.83398V93.39061h11.07194c6.665 0 11.84594-1.55047 15.55111-4.67513 3.70517-3.13183 5.54297-7.50372 5.54297-13.12956 0-5.48967-1.88494-9.91587-5.66894-13.25553-3.784-3.3325-8.88465-4.99707-15.31315-4.99707zm10.83398 8.51042h10.79199c3.12467.043 5.5713.91901 7.34863 2.61751 1.79167 1.69133 2.6875 3.94391 2.6875 6.77474 0 2.87383-.88251 5.07344-2.64551 6.59277s-4.30974 2.28157-7.65658 2.28157H46.58332z"/></g></svg>