<svg xmlns="http://www.w3.org/2000/svg" width="100" height="100" fill="#3498db" viewBox="0 0 24 24"><path d="M14 3 2 5v14l12 2v-2h7c.552 0 1-.448 1-1V6c0-.552-.448-1-1-1h-7V3zm-2 2.3613281V18.638672l-8-1.332031V6.6933594l8-1.3320313zM14 7h6v2h-6V7zM4.5 8.5l1.2988281 7h1.2929688l.8476562-3.742188c.041-.206999.0728438-.468203.0898438-.783203h.0175781c.008.288.0312656.549204.0722656.783203L8.9492188 15.5h1.2421872L11.5 8.5h-1.365234l-.4511722 3.222656c-.0330001.27-.0584063.531203-.0664063.783203h-.015625c-.024-.324-.0490313-.577047-.0820313-.748047L8.9667969 8.5h-1.765625l-.59375 3.267578c-.058.298-.0916094.577313-.0996094.820313h-.0253906c-.008-.333-.0314531-.604735-.0644531-.802735L5.9511719 8.5H4.5zM14 11h6v2h-6v-2zm0 4h6v2h-6v-2z"/></svg>