<svg xmlns="http://www.w3.org/2000/svg" x="0px" y="0px"
width="100" height="100"
viewBox="0 0 172 172"
style=" fill:#000000;"><g fill="none" fill-rule="nonzero" stroke="none" stroke-width="1" stroke-linecap="butt" stroke-linejoin="miter" stroke-miterlimit="10" stroke-dasharray="" stroke-dashoffset="0" font-family="none" font-weight="none" font-size="none" text-anchor="none" style="mix-blend-mode: normal"><path d="M0,172v-172h172v172z" fill="none"></path><g fill="#3498db"><path d="M82.41667,0c-9.89717,0 -17.91667,8.0195 -17.91667,17.91667v10.75h-28.66667c-7.91917,0 -14.33333,6.41417 -14.33333,14.33333v28.66667h10.75c9.89717,0 17.91667,8.0195 17.91667,17.91667c0,9.89717 -8.0195,17.91667 -17.91667,17.91667h-10.75v28.66667c0,7.91917 6.41417,14.33333 14.33333,14.33333h28.66667v-10.75c0,-9.89717 8.0195,-17.91667 17.91667,-17.91667c9.89717,0 17.91667,8.0195 17.91667,17.91667v10.75h28.66667c7.91917,0 14.33333,-6.41417 14.33333,-14.33333v-28.66667h10.75c9.89717,0 17.91667,-8.0195 17.91667,-17.91667c0,-9.89717 -8.0195,-17.91667 -17.91667,-17.91667h-10.75v-28.66667c0,-7.91917 -6.41417,-14.33333 -14.33333,-14.33333h-28.66667v-10.75c0,-9.89717 -8.0195,-17.91667 -17.91667,-17.91667z"></path></g></g></svg>