<svg xmlns="http://www.w3.org/2000/svg" width="30" height="30" viewBox="0 0 172 172"><g fill="none" stroke-miterlimit="10" font-family="none" font-size="none" font-weight="none" style="mix-blend-mode:normal" text-anchor="none"><path d="M0 172V0h172v172z"/><path fill="#fff" d="M78.83333 0C76.97 0 75.13511.73078 73.76627 2.09961l-21.5 21.5c-2.80217 2.80217-2.80217 7.33911 0 10.13411l21.5 21.5c2.04967 2.04967 5.12304 2.65738 7.81054 1.55371 2.68034-1.11083 4.42318-3.71827 4.42318-6.62077V35.83333c27.78864 0 50.16667 22.37803 50.16667 50.16667 0 7.35156-1.61264 14.296-4.46517 20.61816-1.15056 2.34816-.93103 5.13657.57284 7.27574 1.50386 2.13917 4.05336 3.28959 6.65237 3.00177 2.59901-.28783 4.83501-1.96821 5.83437-4.3846C148.40154 104.44257 150.5 95.46144 150.5 86c0-35.53603-28.96397-64.5-64.5-64.5V7.16667c0-2.89533-1.74285-5.50993-4.42318-6.62077C80.68816.1804 79.75783 0 78.83333 0zM33.8737 55.17773c-2.87632-.02446-5.48862 1.67299-6.63477 4.3112C23.59846 67.55743 21.5 76.53856 21.5 86c0 35.53603 28.96397 64.5 64.5 64.5v14.33333c0 2.89533 1.74285 5.50993 4.42318 6.62077.88866.3655 1.81899.5459 2.74349.5459 1.86333 0 3.69822-.73078 5.06706-2.09961l21.5-21.5c2.80217-2.80217 2.80217-7.33194 0-10.13411l-21.5-21.5c-2.04967-2.04967-5.12304-2.65738-7.81054-1.55371-2.68034 1.11083-4.42318 3.72543-4.42318 6.62077v14.33333c-27.78863 0-50.16667-22.37803-50.16667-50.16667 0-7.35156 1.61264-14.29599 4.46517-20.61816 1.03342-2.20909.8726-4.79207-.42686-6.85591s-3.5592-3.32528-5.99795-3.34819z"/></g></svg>