<svg xmlns="http://www.w3.org/2000/svg" width="50" height="50" viewBox="0 0 172 172"><g fill="none" stroke-miterlimit="10" font-family="none" font-size="none" font-weight="none" style="mix-blend-mode:normal" text-anchor="none"><path d="M0 172V0h172v172z"/><path fill="#333" d="M74.53333 17.2C42.93691 17.2 17.2 42.93692 17.2 74.53333c0 31.59642 25.73692 57.33333 57.33333 57.33333 13.73998 0 26.35834-4.87915 36.24766-12.97839l34.23203 34.23203c1.43802 1.49778 3.5734 2.10113 5.5826 1.57735 2.0092-.52378 3.57826-2.09284 4.10204-4.10204.52378-2.0092-.07957-4.14458-1.57735-5.5826l-34.23203-34.23203c8.09924-9.88932 12.97839-22.50768 12.97839-36.24766 0-31.59642-25.73692-57.33333-57.33333-57.33333zm0 11.46667c25.39937 0 45.86667 20.4673 45.86667 45.86667 0 25.39937-20.46729 45.86667-45.86667 45.86667-25.39937 0-45.86667-20.46729-45.86667-45.86667 0-25.39937 20.4673-45.86667 45.86667-45.86667z"/></g></svg>