<svg xmlns="http://www.w3.org/2000/svg" xml:space="preserve" viewBox="0 0 512 512"><path d="M510.977 250.975C467.408 148.537 367.321 82.344 256 82.344S44.594 148.535 1.023 250.975c-1.364 3.206-1.364 6.827 0 10.033C44.591 363.458 144.677 429.656 256 429.656c111.326 0 211.411-66.198 254.977-168.648 1.364-3.206 1.364-6.827 0-10.033zM256 404.022c-99.194 0-188.557-57.922-229.191-148.029 40.635-90.098 130-148.014 229.191-148.014 99.193 0 188.557 57.916 229.191 148.012C444.557 346.098 355.194 404.022 256 404.022z"/><path d="M256 157.825c-54.134 0-98.174 44.041-98.174 98.174 0 54.133 44.041 98.174 98.174 98.174 54.133 0 98.174-44.04 98.174-98.174 0-54.134-44.041-98.174-98.174-98.174zm0 170.716c-39.998 0-72.54-32.542-72.54-72.54s32.542-72.54 72.54-72.54 72.54 32.542 72.54 72.54-32.542 72.54-72.54 72.54z"/><path d="M256 203.878c-28.739 0-52.123 23.382-52.123 52.123 0 7.078 5.737 12.817 12.817 12.817s12.817-5.739 12.817-12.817c0-14.606 11.882-26.489 26.489-26.489 7.08 0 12.817-5.739 12.817-12.817 0-7.08-5.739-12.817-12.817-12.817z"/></svg>